<mxfile host="app.diagrams.net" modified="2022-12-27T08:33:55.321Z" agent="5.0 (Macintosh; Intel Mac OS X 10_15_6) AppleWebKit/537.36 (KHTML, like Gecko) Chrome/108.0.0.0 Safari/537.36" version="20.7.4" etag="aD2Q7jC6pMt_A2UgFeic" type="github">
  <diagram id="AMW5ANNdTsyV4kbHOK_1" name="第 1 页">
    <mxGraphModel dx="2133" dy="773" grid="1" gridSize="10" guides="1" tooltips="1" connect="1" arrows="1" fold="1" page="1" pageScale="1" pageWidth="827" pageHeight="1169" math="0" shadow="0">
      <root>
        <mxCell id="0" />
        <mxCell id="1" parent="0" />
        <mxCell id="YO6uQFrBABpsWMhRvk57-172" value="" style="edgeStyle=orthogonalEdgeStyle;rounded=0;orthogonalLoop=1;jettySize=auto;html=1;fontSize=15;" edge="1" parent="1" target="YO6uQFrBABpsWMhRvk57-171">
          <mxGeometry relative="1" as="geometry">
            <mxPoint x="110" y="570" as="sourcePoint" />
          </mxGeometry>
        </mxCell>
        <mxCell id="YO6uQFrBABpsWMhRvk57-127" value="Assets" style="childLayout=tableLayout;recursiveResize=0;strokeColor=#98bf21;fillColor=#A7C942;shadow=1;fontSize=15;" vertex="1" parent="1">
          <mxGeometry x="114" y="380" width="600" height="275" as="geometry" />
        </mxCell>
        <mxCell id="YO6uQFrBABpsWMhRvk57-128" style="shape=tableRow;horizontal=0;startSize=0;swimlaneHead=0;swimlaneBody=0;top=0;left=0;bottom=0;right=0;dropTarget=0;collapsible=0;recursiveResize=0;expand=0;fontStyle=0;strokeColor=inherit;fillColor=#ffffff;fontSize=15;" vertex="1" parent="YO6uQFrBABpsWMhRvk57-127">
          <mxGeometry width="600" height="56" as="geometry" />
        </mxCell>
        <mxCell id="YO6uQFrBABpsWMhRvk57-129" value="" style="connectable=0;recursiveResize=0;strokeColor=inherit;fillColor=#A7C942;align=center;fontStyle=1;fontColor=#FFFFFF;html=1;fontSize=15;" vertex="1" parent="YO6uQFrBABpsWMhRvk57-128">
          <mxGeometry width="100" height="56" as="geometry">
            <mxRectangle width="100" height="56" as="alternateBounds" />
          </mxGeometry>
        </mxCell>
        <mxCell id="YO6uQFrBABpsWMhRvk57-130" value="personal_info" style="connectable=0;recursiveResize=0;strokeColor=inherit;fillColor=#A7C942;align=center;fontStyle=1;fontColor=#FFFFFF;html=1;rowspan=1;colspan=3;fontSize=15;" vertex="1" parent="YO6uQFrBABpsWMhRvk57-128">
          <mxGeometry x="100" width="300" height="56" as="geometry">
            <mxRectangle width="101" height="56" as="alternateBounds" />
          </mxGeometry>
        </mxCell>
        <mxCell id="YO6uQFrBABpsWMhRvk57-131" value="Title 3" style="connectable=0;recursiveResize=0;strokeColor=inherit;fillColor=#A7C942;align=center;fontStyle=1;fontColor=#FFFFFF;html=1;" vertex="1" visible="0" parent="YO6uQFrBABpsWMhRvk57-128">
          <mxGeometry x="201" width="99" height="56" as="geometry">
            <mxRectangle width="99" height="56" as="alternateBounds" />
          </mxGeometry>
        </mxCell>
        <mxCell id="YO6uQFrBABpsWMhRvk57-158" style="connectable=0;recursiveResize=0;strokeColor=inherit;fillColor=#A7C942;align=center;fontStyle=1;fontColor=#FFFFFF;html=1;" vertex="1" visible="0" parent="YO6uQFrBABpsWMhRvk57-128">
          <mxGeometry x="300" width="100" height="56" as="geometry">
            <mxRectangle width="100" height="56" as="alternateBounds" />
          </mxGeometry>
        </mxCell>
        <mxCell id="YO6uQFrBABpsWMhRvk57-153" value="office_info" style="connectable=0;recursiveResize=0;strokeColor=inherit;fillColor=#A7C942;align=center;fontStyle=1;fontColor=#FFFFFF;html=1;rowspan=1;colspan=2;fontSize=15;" vertex="1" parent="YO6uQFrBABpsWMhRvk57-128">
          <mxGeometry x="400" width="200" height="56" as="geometry">
            <mxRectangle width="100" height="56" as="alternateBounds" />
          </mxGeometry>
        </mxCell>
        <mxCell id="YO6uQFrBABpsWMhRvk57-148" style="connectable=0;recursiveResize=0;strokeColor=inherit;fillColor=#A7C942;align=center;fontStyle=1;fontColor=#FFFFFF;html=1;" vertex="1" visible="0" parent="YO6uQFrBABpsWMhRvk57-128">
          <mxGeometry x="500" width="100" height="56" as="geometry">
            <mxRectangle width="100" height="56" as="alternateBounds" />
          </mxGeometry>
        </mxCell>
        <mxCell id="YO6uQFrBABpsWMhRvk57-132" value="" style="shape=tableRow;horizontal=0;startSize=0;swimlaneHead=0;swimlaneBody=0;top=0;left=0;bottom=0;right=0;dropTarget=0;collapsible=0;recursiveResize=0;expand=0;fontStyle=0;strokeColor=inherit;fillColor=#ffffff;fontSize=15;" vertex="1" parent="YO6uQFrBABpsWMhRvk57-127">
          <mxGeometry y="56" width="600" height="55" as="geometry" />
        </mxCell>
        <mxCell id="YO6uQFrBABpsWMhRvk57-133" value="&lt;font style=&quot;font-size: 15px;&quot;&gt;Row Key&lt;/font&gt;" style="connectable=0;recursiveResize=0;strokeColor=inherit;fillColor=inherit;align=center;whiteSpace=wrap;html=1;fontSize=15;" vertex="1" parent="YO6uQFrBABpsWMhRvk57-132">
          <mxGeometry width="100" height="55" as="geometry">
            <mxRectangle width="100" height="55" as="alternateBounds" />
          </mxGeometry>
        </mxCell>
        <mxCell id="YO6uQFrBABpsWMhRvk57-134" value="&lt;font style=&quot;font-size: 15px;&quot;&gt;name&lt;/font&gt;" style="connectable=0;recursiveResize=0;strokeColor=inherit;fillColor=inherit;align=center;whiteSpace=wrap;html=1;fontSize=15;" vertex="1" parent="YO6uQFrBABpsWMhRvk57-132">
          <mxGeometry x="100" width="101" height="55" as="geometry">
            <mxRectangle width="101" height="55" as="alternateBounds" />
          </mxGeometry>
        </mxCell>
        <mxCell id="YO6uQFrBABpsWMhRvk57-135" value="&lt;font style=&quot;font-size: 15px;&quot;&gt;city&lt;/font&gt;" style="connectable=0;recursiveResize=0;strokeColor=inherit;fillColor=inherit;align=center;whiteSpace=wrap;html=1;fontSize=15;" vertex="1" parent="YO6uQFrBABpsWMhRvk57-132">
          <mxGeometry x="201" width="99" height="55" as="geometry">
            <mxRectangle width="99" height="55" as="alternateBounds" />
          </mxGeometry>
        </mxCell>
        <mxCell id="YO6uQFrBABpsWMhRvk57-159" value="&lt;font style=&quot;font-size: 15px;&quot;&gt;phone&lt;/font&gt;" style="connectable=0;recursiveResize=0;strokeColor=inherit;fillColor=inherit;align=center;whiteSpace=wrap;html=1;fontSize=15;" vertex="1" parent="YO6uQFrBABpsWMhRvk57-132">
          <mxGeometry x="300" width="100" height="55" as="geometry">
            <mxRectangle width="100" height="55" as="alternateBounds" />
          </mxGeometry>
        </mxCell>
        <mxCell id="YO6uQFrBABpsWMhRvk57-154" value="&lt;font style=&quot;font-size: 15px;&quot;&gt;tel&lt;/font&gt;" style="connectable=0;recursiveResize=0;strokeColor=inherit;fillColor=inherit;align=center;whiteSpace=wrap;html=1;fontSize=15;" vertex="1" parent="YO6uQFrBABpsWMhRvk57-132">
          <mxGeometry x="400" width="100" height="55" as="geometry">
            <mxRectangle width="100" height="55" as="alternateBounds" />
          </mxGeometry>
        </mxCell>
        <mxCell id="YO6uQFrBABpsWMhRvk57-149" value="&lt;font style=&quot;font-size: 15px;&quot;&gt;address&lt;/font&gt;" style="connectable=0;recursiveResize=0;strokeColor=inherit;fillColor=inherit;align=center;whiteSpace=wrap;html=1;fontSize=15;" vertex="1" parent="YO6uQFrBABpsWMhRvk57-132">
          <mxGeometry x="500" width="100" height="55" as="geometry">
            <mxRectangle width="100" height="55" as="alternateBounds" />
          </mxGeometry>
        </mxCell>
        <mxCell id="YO6uQFrBABpsWMhRvk57-136" value="" style="shape=tableRow;horizontal=0;startSize=0;swimlaneHead=0;swimlaneBody=0;top=0;left=0;bottom=0;right=0;dropTarget=0;collapsible=0;recursiveResize=0;expand=0;fontStyle=1;strokeColor=inherit;fillColor=#EAF2D3;fontSize=15;" vertex="1" parent="YO6uQFrBABpsWMhRvk57-127">
          <mxGeometry y="111" width="600" height="54" as="geometry" />
        </mxCell>
        <mxCell id="YO6uQFrBABpsWMhRvk57-137" value="row_key1" style="connectable=0;recursiveResize=0;strokeColor=inherit;fillColor=inherit;whiteSpace=wrap;html=1;fontSize=15;" vertex="1" parent="YO6uQFrBABpsWMhRvk57-136">
          <mxGeometry width="100" height="54" as="geometry">
            <mxRectangle width="100" height="54" as="alternateBounds" />
          </mxGeometry>
        </mxCell>
        <mxCell id="YO6uQFrBABpsWMhRvk57-138" value="张三" style="connectable=0;recursiveResize=0;strokeColor=inherit;fillColor=inherit;whiteSpace=wrap;html=1;fontSize=15;" vertex="1" parent="YO6uQFrBABpsWMhRvk57-136">
          <mxGeometry x="100" width="101" height="54" as="geometry">
            <mxRectangle width="101" height="54" as="alternateBounds" />
          </mxGeometry>
        </mxCell>
        <mxCell id="YO6uQFrBABpsWMhRvk57-139" value="北京" style="connectable=0;recursiveResize=0;strokeColor=inherit;fillColor=inherit;whiteSpace=wrap;html=1;fontSize=15;" vertex="1" parent="YO6uQFrBABpsWMhRvk57-136">
          <mxGeometry x="201" width="99" height="54" as="geometry">
            <mxRectangle width="99" height="54" as="alternateBounds" />
          </mxGeometry>
        </mxCell>
        <mxCell id="YO6uQFrBABpsWMhRvk57-160" value="131********" style="connectable=0;recursiveResize=0;strokeColor=inherit;fillColor=inherit;whiteSpace=wrap;html=1;fontSize=15;" vertex="1" parent="YO6uQFrBABpsWMhRvk57-136">
          <mxGeometry x="300" width="100" height="54" as="geometry">
            <mxRectangle width="100" height="54" as="alternateBounds" />
          </mxGeometry>
        </mxCell>
        <mxCell id="YO6uQFrBABpsWMhRvk57-155" value="010-111111" style="connectable=0;recursiveResize=0;strokeColor=inherit;fillColor=inherit;whiteSpace=wrap;html=1;fontSize=15;" vertex="1" parent="YO6uQFrBABpsWMhRvk57-136">
          <mxGeometry x="400" width="100" height="54" as="geometry">
            <mxRectangle width="100" height="54" as="alternateBounds" />
          </mxGeometry>
        </mxCell>
        <mxCell id="YO6uQFrBABpsWMhRvk57-150" value="上海" style="connectable=0;recursiveResize=0;strokeColor=inherit;fillColor=inherit;whiteSpace=wrap;html=1;fontSize=15;" vertex="1" parent="YO6uQFrBABpsWMhRvk57-136">
          <mxGeometry x="500" width="100" height="54" as="geometry">
            <mxRectangle width="100" height="54" as="alternateBounds" />
          </mxGeometry>
        </mxCell>
        <mxCell id="YO6uQFrBABpsWMhRvk57-140" value="" style="shape=tableRow;horizontal=0;startSize=0;swimlaneHead=0;swimlaneBody=0;top=0;left=0;bottom=0;right=0;dropTarget=0;collapsible=0;recursiveResize=0;expand=0;fontStyle=0;strokeColor=inherit;fillColor=#ffffff;fontSize=15;" vertex="1" parent="YO6uQFrBABpsWMhRvk57-127">
          <mxGeometry y="165" width="600" height="56" as="geometry" />
        </mxCell>
        <mxCell id="YO6uQFrBABpsWMhRvk57-141" value="row_key11" style="connectable=0;recursiveResize=0;strokeColor=inherit;fillColor=inherit;fontStyle=0;align=center;whiteSpace=wrap;html=1;fontSize=15;" vertex="1" parent="YO6uQFrBABpsWMhRvk57-140">
          <mxGeometry width="100" height="56" as="geometry">
            <mxRectangle width="100" height="56" as="alternateBounds" />
          </mxGeometry>
        </mxCell>
        <mxCell id="YO6uQFrBABpsWMhRvk57-142" value="" style="connectable=0;recursiveResize=0;strokeColor=inherit;fillColor=inherit;fontStyle=0;align=center;whiteSpace=wrap;html=1;fontSize=15;" vertex="1" parent="YO6uQFrBABpsWMhRvk57-140">
          <mxGeometry x="100" width="101" height="56" as="geometry">
            <mxRectangle width="101" height="56" as="alternateBounds" />
          </mxGeometry>
        </mxCell>
        <mxCell id="YO6uQFrBABpsWMhRvk57-143" value="上海" style="connectable=0;recursiveResize=0;strokeColor=inherit;fillColor=inherit;fontStyle=0;align=center;whiteSpace=wrap;html=1;fontSize=15;" vertex="1" parent="YO6uQFrBABpsWMhRvk57-140">
          <mxGeometry x="201" width="99" height="56" as="geometry">
            <mxRectangle width="99" height="56" as="alternateBounds" />
          </mxGeometry>
        </mxCell>
        <mxCell id="YO6uQFrBABpsWMhRvk57-161" value="132********" style="connectable=0;recursiveResize=0;strokeColor=inherit;fillColor=inherit;fontStyle=0;align=center;whiteSpace=wrap;html=1;fontSize=15;" vertex="1" parent="YO6uQFrBABpsWMhRvk57-140">
          <mxGeometry x="300" width="100" height="56" as="geometry">
            <mxRectangle width="100" height="56" as="alternateBounds" />
          </mxGeometry>
        </mxCell>
        <mxCell id="YO6uQFrBABpsWMhRvk57-156" value="010-222222" style="connectable=0;recursiveResize=0;strokeColor=inherit;fillColor=inherit;fontStyle=0;align=center;whiteSpace=wrap;html=1;fontSize=15;" vertex="1" parent="YO6uQFrBABpsWMhRvk57-140">
          <mxGeometry x="400" width="100" height="56" as="geometry">
            <mxRectangle width="100" height="56" as="alternateBounds" />
          </mxGeometry>
        </mxCell>
        <mxCell id="YO6uQFrBABpsWMhRvk57-151" style="connectable=0;recursiveResize=0;strokeColor=inherit;fillColor=inherit;fontStyle=0;align=center;whiteSpace=wrap;html=1;fontSize=15;" vertex="1" parent="YO6uQFrBABpsWMhRvk57-140">
          <mxGeometry x="500" width="100" height="56" as="geometry">
            <mxRectangle width="100" height="56" as="alternateBounds" />
          </mxGeometry>
        </mxCell>
        <mxCell id="YO6uQFrBABpsWMhRvk57-144" value="" style="shape=tableRow;horizontal=0;startSize=0;swimlaneHead=0;swimlaneBody=0;top=0;left=0;bottom=0;right=0;dropTarget=0;collapsible=0;recursiveResize=0;expand=0;fontStyle=1;strokeColor=inherit;fillColor=#EAF2D3;fontSize=15;" vertex="1" parent="YO6uQFrBABpsWMhRvk57-127">
          <mxGeometry y="221" width="600" height="54" as="geometry" />
        </mxCell>
        <mxCell id="YO6uQFrBABpsWMhRvk57-145" value="row_key2" style="connectable=0;recursiveResize=0;strokeColor=inherit;fillColor=inherit;whiteSpace=wrap;html=1;fontSize=15;" vertex="1" parent="YO6uQFrBABpsWMhRvk57-144">
          <mxGeometry width="100" height="54" as="geometry">
            <mxRectangle width="100" height="54" as="alternateBounds" />
          </mxGeometry>
        </mxCell>
        <mxCell id="YO6uQFrBABpsWMhRvk57-146" value="王五" style="connectable=0;recursiveResize=0;strokeColor=inherit;fillColor=inherit;whiteSpace=wrap;html=1;fontSize=15;" vertex="1" parent="YO6uQFrBABpsWMhRvk57-144">
          <mxGeometry x="100" width="101" height="54" as="geometry">
            <mxRectangle width="101" height="54" as="alternateBounds" />
          </mxGeometry>
        </mxCell>
        <mxCell id="YO6uQFrBABpsWMhRvk57-147" value="广州" style="connectable=0;recursiveResize=0;strokeColor=inherit;fillColor=inherit;whiteSpace=wrap;html=1;fontSize=15;" vertex="1" parent="YO6uQFrBABpsWMhRvk57-144">
          <mxGeometry x="201" width="99" height="54" as="geometry">
            <mxRectangle width="99" height="54" as="alternateBounds" />
          </mxGeometry>
        </mxCell>
        <mxCell id="YO6uQFrBABpsWMhRvk57-162" style="connectable=0;recursiveResize=0;strokeColor=inherit;fillColor=inherit;whiteSpace=wrap;html=1;fontSize=15;" vertex="1" parent="YO6uQFrBABpsWMhRvk57-144">
          <mxGeometry x="300" width="100" height="54" as="geometry">
            <mxRectangle width="100" height="54" as="alternateBounds" />
          </mxGeometry>
        </mxCell>
        <mxCell id="YO6uQFrBABpsWMhRvk57-157" value="010-333333" style="connectable=0;recursiveResize=0;strokeColor=inherit;fillColor=inherit;whiteSpace=wrap;html=1;fontSize=15;" vertex="1" parent="YO6uQFrBABpsWMhRvk57-144">
          <mxGeometry x="400" width="100" height="54" as="geometry">
            <mxRectangle width="100" height="54" as="alternateBounds" />
          </mxGeometry>
        </mxCell>
        <mxCell id="YO6uQFrBABpsWMhRvk57-152" value="上海" style="connectable=0;recursiveResize=0;strokeColor=inherit;fillColor=inherit;whiteSpace=wrap;html=1;fontSize=15;" vertex="1" parent="YO6uQFrBABpsWMhRvk57-144">
          <mxGeometry x="500" width="100" height="54" as="geometry">
            <mxRectangle width="100" height="54" as="alternateBounds" />
          </mxGeometry>
        </mxCell>
        <mxCell id="YO6uQFrBABpsWMhRvk57-171" value="Row Key" style="whiteSpace=wrap;html=1;fontSize=15;fillColor=#e51400;strokeColor=#B20000;shadow=1;fontColor=#ffffff;" vertex="1" parent="1">
          <mxGeometry x="-20" y="540" width="80" height="60" as="geometry" />
        </mxCell>
        <mxCell id="YO6uQFrBABpsWMhRvk57-230" value="&lt;font color=&quot;#ffffff&quot;&gt;列族&lt;/font&gt;" style="rounded=1;whiteSpace=wrap;html=1;strokeColor=#FF0000;fontSize=15;fillColor=#FF0000;" vertex="1" parent="1">
          <mxGeometry x="780" y="380" width="120" height="60" as="geometry" />
        </mxCell>
        <mxCell id="YO6uQFrBABpsWMhRvk57-231" value="" style="endArrow=classic;html=1;rounded=0;fontSize=15;fontColor=#FFFFFF;" edge="1" parent="1" source="YO6uQFrBABpsWMhRvk57-128" target="YO6uQFrBABpsWMhRvk57-230">
          <mxGeometry width="50" height="50" relative="1" as="geometry">
            <mxPoint x="570" y="600" as="sourcePoint" />
            <mxPoint x="620" y="550" as="targetPoint" />
          </mxGeometry>
        </mxCell>
      </root>
    </mxGraphModel>
  </diagram>
</mxfile>
